<svg width="5415" height="5255" viewBox="0 0 5415 5255" fill="none" xmlns="http://www.w3.org/2000/svg">
<g id="Group 2">
<g id="blob" filter="url(#filter0_f_20_80)">
<path d="M4225.34 3703.5C3971.12 4188.2 3453.61 4038.47 2672.79 4205.09C1891.98 4371.71 1383.55 4129.36 1147.49 3478.04C911.43 2826.72 956.826 2243.57 1283.68 1728.57C1610.53 1213.58 2118.96 971.231 2808.98 1001.52C3499 1031.82 3971.12 1289.32 4225.34 1774.02C4479.55 2258.72 4479.55 3218.8 4225.34 3703.5Z" fill="#828282" fill-opacity="0.33"/>
</g>
<g id="linkedinicon 1">
<path id="Vector" d="M1925.74 2317.46C1920.98 2317.46 1916.41 2319.35 1913.04 2322.72C1909.67 2326.09 1907.78 2330.66 1907.78 2335.42C1907.78 2340.18 1909.67 2344.75 1913.04 2348.12C1916.41 2351.49 1920.98 2353.38 1925.74 2353.38C1930.5 2353.38 1935.07 2351.49 1938.44 2348.12C1941.81 2344.75 1943.7 2340.18 1943.7 2335.42C1943.7 2330.66 1941.81 2326.09 1938.44 2322.72C1935.07 2319.35 1930.5 2317.46 1925.74 2317.46Z" fill="#EE3E54"/>
<path id="Vector_2" d="M2500.46 2182.76C2498.08 2182.76 2495.79 2183.71 2494.11 2185.39C2492.43 2187.07 2491.48 2189.36 2491.48 2191.74C2491.48 2194.12 2492.43 2196.41 2494.11 2198.09C2495.79 2199.77 2498.08 2200.72 2500.46 2200.72C2502.84 2200.72 2505.13 2199.77 2506.81 2198.09C2508.49 2196.41 2509.44 2194.12 2509.44 2191.74C2509.44 2189.36 2508.49 2187.07 2506.81 2185.39C2505.13 2183.71 2502.84 2182.76 2500.46 2182.76Z" fill="#F1BC19"/>
<path id="Vector_3" d="M2258 2191.74C2169.88 2191.74 2085.37 2226.75 2023.06 2289.06C1960.75 2351.37 1925.74 2435.88 1925.74 2524C1925.74 2612.12 1960.75 2696.63 2023.06 2758.94C2085.37 2821.25 2169.88 2856.26 2258 2856.26C2346.12 2856.26 2430.63 2821.25 2492.94 2758.94C2555.25 2696.63 2590.26 2612.12 2590.26 2524C2590.26 2435.88 2555.25 2351.37 2492.94 2289.06C2430.63 2226.75 2346.12 2191.74 2258 2191.74Z" fill="#FCE0A2"/>
<path id="Vector_4" d="M2554.34 2173.78C2544.81 2173.78 2535.68 2177.56 2528.94 2184.3C2522.2 2191.04 2518.42 2200.17 2518.42 2209.7C2518.42 2219.23 2522.2 2228.36 2528.94 2235.1C2535.68 2241.84 2544.81 2245.62 2554.34 2245.62C2563.87 2245.62 2573 2241.84 2579.74 2235.1C2586.48 2228.36 2590.26 2219.23 2590.26 2209.7C2590.26 2200.17 2586.48 2191.04 2579.74 2184.3C2573 2177.56 2563.87 2173.78 2554.34 2173.78Z" fill="#F1BC19"/>
<path id="Vector_5" d="M2590.26 2272.56C2585.5 2272.56 2580.93 2274.45 2577.56 2277.82C2574.19 2281.19 2572.3 2285.76 2572.3 2290.52C2572.3 2295.28 2574.19 2299.85 2577.56 2303.22C2580.93 2306.59 2585.5 2308.48 2590.26 2308.48C2595.02 2308.48 2599.59 2306.59 2602.96 2303.22C2606.33 2299.85 2608.22 2295.28 2608.22 2290.52C2608.22 2285.76 2606.33 2281.19 2602.96 2277.82C2599.59 2274.45 2595.02 2272.56 2590.26 2272.56Z" fill="#EE3E54"/>
<path id="Vector_6" d="M2536.38 2739.52C2531.62 2739.52 2527.05 2741.41 2523.68 2744.78C2520.31 2748.15 2518.42 2752.72 2518.42 2757.48C2518.42 2762.24 2520.31 2766.81 2523.68 2770.18C2527.05 2773.55 2531.62 2775.44 2536.38 2775.44C2541.14 2775.44 2545.71 2773.55 2549.08 2770.18C2552.45 2766.81 2554.34 2762.24 2554.34 2757.48C2554.34 2752.72 2552.45 2748.15 2549.08 2744.78C2545.71 2741.41 2541.14 2739.52 2536.38 2739.52ZM1943.7 2604.82C1934.17 2604.82 1925.04 2608.6 1918.3 2615.34C1911.56 2622.08 1907.78 2631.21 1907.78 2640.74C1907.78 2650.27 1911.56 2659.4 1918.3 2666.14C1925.04 2672.88 1934.17 2676.66 1943.7 2676.66C1953.23 2676.66 1962.36 2672.88 1969.1 2666.14C1975.84 2659.4 1979.62 2650.27 1979.62 2640.74C1979.62 2631.21 1975.84 2622.08 1969.1 2615.34C1962.36 2608.6 1953.23 2604.82 1943.7 2604.82Z" fill="#FBCD59"/>
<path id="Vector_7" d="M2033.5 2838.3C2028.74 2838.3 2024.17 2840.19 2020.8 2843.56C2017.43 2846.93 2015.54 2851.5 2015.54 2856.26C2015.54 2861.02 2017.43 2865.59 2020.8 2868.96C2024.17 2872.33 2028.74 2874.22 2033.5 2874.22C2038.26 2874.22 2042.83 2872.33 2046.2 2868.96C2049.57 2865.59 2051.46 2861.02 2051.46 2856.26C2051.46 2851.5 2049.57 2846.93 2046.2 2843.56C2042.83 2840.19 2038.26 2838.3 2033.5 2838.3Z" fill="#EE3E54"/>
<path id="Vector_8" d="M1975.13 2532.98C1969.18 2532.98 1963.47 2535.35 1959.26 2539.56C1955.04 2543.77 1952.68 2549.48 1952.68 2555.43C1952.68 2561.38 1955.04 2567.09 1959.26 2571.31C1963.47 2575.52 1969.18 2577.88 1975.13 2577.88C1981.08 2577.88 1986.79 2575.52 1991 2571.31C1995.21 2567.09 1997.58 2561.38 1997.58 2555.43C1997.58 2549.48 1995.21 2543.77 1991 2539.56C1986.79 2535.35 1981.08 2532.98 1975.13 2532.98Z" fill="white"/>
<path id="Vector_9" d="M1997.58 2667.68C1995.2 2667.68 1992.91 2668.63 1991.23 2670.31C1989.55 2671.99 1988.6 2674.28 1988.6 2676.66C1988.6 2679.04 1989.55 2681.33 1991.23 2683.01C1992.91 2684.69 1995.2 2685.64 1997.58 2685.64C1999.96 2685.64 2002.25 2684.69 2003.93 2683.01C2005.61 2681.33 2006.56 2679.04 2006.56 2676.66C2006.56 2674.28 2005.61 2671.99 2003.93 2670.31C2002.25 2668.63 1999.96 2667.68 1997.58 2667.68Z" fill="#F1BC19"/>
<path id="Vector_10" d="M2527.4 2371.34C2525.02 2371.34 2522.73 2372.29 2521.05 2373.97C2519.37 2375.65 2518.42 2377.94 2518.42 2380.32C2518.42 2382.7 2519.37 2384.99 2521.05 2386.67C2522.73 2388.35 2525.02 2389.3 2527.4 2389.3C2529.78 2389.3 2532.07 2388.35 2533.75 2386.67C2535.43 2384.99 2536.38 2382.7 2536.38 2380.32C2536.38 2377.94 2535.43 2375.65 2533.75 2373.97C2532.07 2372.29 2529.78 2371.34 2527.4 2371.34Z" fill="white"/>
<g id="Group">
<path id="Vector_11" d="M2123.29 2724.25C2087.37 2724.25 2057.74 2694.61 2057.74 2658.69V2389.29C2057.74 2353.37 2087.37 2323.74 2123.29 2323.74H2392.69C2428.61 2323.74 2458.25 2353.37 2458.25 2389.29V2658.69C2458.25 2694.61 2428.61 2724.25 2392.69 2724.25H2123.29Z" fill="#127AD8"/>
<path id="Vector_12" d="M2392.7 2330.03C2425.03 2330.03 2451.97 2356.97 2451.97 2389.3V2658.7C2451.97 2691.03 2425.03 2717.97 2392.7 2717.97H2123.3C2090.97 2717.97 2064.03 2691.03 2064.03 2658.7V2389.3C2064.03 2356.97 2090.97 2330.03 2123.3 2330.03H2392.7ZM2392.7 2317.46H2123.3C2083.79 2317.46 2051.46 2349.79 2051.46 2389.3V2658.7C2051.46 2698.21 2083.79 2730.54 2123.3 2730.54H2392.7C2432.21 2730.54 2464.54 2698.21 2464.54 2658.7V2389.3C2464.54 2349.79 2432.21 2317.46 2392.7 2317.46Z" fill="#472B29"/>
</g>
<g id="Group_2">
<path id="Vector_13" d="M2380.12 2690.13H2136.76C2112.52 2690.13 2093.66 2670.37 2093.66 2647.03V2400.97C2093.66 2376.73 2113.42 2357.87 2136.76 2357.87H2380.12C2404.37 2357.87 2423.23 2377.63 2423.23 2400.97V2646.13C2423.23 2670.37 2404.37 2690.13 2380.12 2690.13Z" fill="#FDFCEE"/>
</g>
<g id="Group_3">
<path id="Vector_14" d="M2424.13 2500.65C2421.44 2500.65 2419.64 2498.86 2419.64 2496.16V2461.14C2419.64 2458.45 2421.44 2456.65 2424.13 2456.65C2426.82 2456.65 2428.62 2458.45 2428.62 2461.14V2496.16C2428.62 2498.86 2426.82 2500.65 2424.13 2500.65Z" fill="#472B29"/>
</g>
<g id="Group_4">
<path id="Vector_15" d="M2424.13 2438.69C2421.44 2438.69 2419.64 2436.89 2419.64 2434.2V2416.24C2419.64 2413.55 2421.44 2411.75 2424.13 2411.75C2426.82 2411.75 2428.62 2413.55 2428.62 2416.24V2434.2C2428.62 2436.89 2426.82 2438.69 2424.13 2438.69Z" fill="#472B29"/>
</g>
<g id="Group_5">
<path id="Vector_16" d="M2383.72 2694.62H2132.28C2107.14 2694.62 2087.38 2674.86 2087.38 2649.72V2398.28C2087.38 2373.14 2107.14 2353.38 2132.28 2353.38H2360.37C2363.07 2353.38 2364.86 2355.18 2364.86 2357.87C2364.86 2360.56 2363.07 2362.36 2360.37 2362.36H2132.28C2112.52 2362.36 2096.36 2378.52 2096.36 2398.28V2649.72C2096.36 2669.48 2112.52 2685.64 2132.28 2685.64H2383.72C2403.48 2685.64 2419.64 2669.48 2419.64 2649.72V2520.41C2419.64 2517.71 2421.44 2515.92 2424.13 2515.92C2426.82 2515.92 2428.62 2517.71 2428.62 2520.41V2649.72C2428.62 2674.86 2408.86 2694.62 2383.72 2694.62Z" fill="#472B29"/>
</g>
<g id="Group_6">
<path id="Vector_17" d="M2352.29 2538.37V2600.33H2315.48L2314.58 2538.37C2314.58 2523.11 2307.39 2511.43 2293.03 2511.43C2282.25 2511.43 2275.96 2518.62 2273.27 2525.8C2272.37 2528.49 2272.37 2532.09 2272.37 2534.78V2599.44H2234.66C2234.66 2599.44 2235.55 2494.37 2234.66 2483.59H2272.37V2501.55C2277.76 2492.57 2286.74 2482.7 2307.39 2482.7C2333.44 2483.59 2352.29 2499.76 2352.29 2538.37Z" fill="#127AD8"/>
<path id="Vector_18" d="M2352.3 2604.82H2315.48C2312.78 2604.82 2310.99 2603.03 2310.99 2600.33L2310.09 2538.37C2310.09 2532.09 2308.29 2515.92 2293.03 2515.92C2283.15 2515.92 2278.66 2524 2276.86 2527.6C2276.86 2528.49 2275.97 2531.19 2275.97 2535.68V2600.33C2275.97 2603.03 2274.17 2604.82 2271.48 2604.82H2233.76C2232.86 2604.82 2231.07 2603.93 2230.17 2603.93C2229.27 2603.03 2229.27 2602.13 2229.27 2600.33C2229.27 2599.44 2230.17 2495.27 2229.27 2484.49C2229.27 2483.59 2229.27 2481.8 2230.17 2480.9C2231.07 2480 2231.96 2479.1 2233.76 2479.1H2271.48C2274.17 2479.1 2275.97 2480.9 2275.97 2483.59V2488.98C2284.05 2481.8 2293.93 2478.21 2306.5 2478.21C2320.87 2478.21 2331.64 2482.7 2340.62 2490.78C2350.5 2500.66 2355.89 2516.82 2355.89 2537.47V2599.44C2356.79 2603.03 2354.99 2604.82 2352.3 2604.82ZM2319.97 2595.84H2347.81V2538.37C2347.81 2520.41 2343.32 2506.94 2335.23 2497.96C2328.95 2491.68 2319.07 2488.08 2308.29 2488.08C2289.44 2488.08 2281.35 2497.06 2276.86 2504.25C2275.07 2507.84 2270.58 2507.84 2268.78 2505.15C2267.88 2504.25 2267.88 2502.45 2268.78 2501.55V2488.98H2240.05C2240.05 2508.74 2240.05 2577.88 2240.05 2595.84H2268.78V2535.68C2268.78 2531.19 2269.68 2527.6 2270.58 2524.9C2275.07 2514.13 2284.05 2507.84 2294.82 2507.84C2310.99 2507.84 2320.87 2519.51 2320.87 2539.27L2319.97 2595.84Z" fill="#472B29"/>
</g>
<g id="Group_7">
<path id="Vector_19" d="M2189.76 2432.39C2178.98 2432.39 2171.8 2439.58 2171.8 2450.35C2171.8 2460.23 2178.98 2468.31 2189.76 2468.31C2201.43 2468.31 2207.72 2460.23 2207.72 2450.35C2207.72 2439.58 2200.53 2432.39 2189.76 2432.39Z" fill="#127AD8"/>
<path id="Vector_20" d="M2189.76 2471.91C2176.29 2471.91 2167.31 2462.93 2167.31 2449.46C2167.31 2435.99 2177.18 2427.01 2189.76 2427.01C2202.33 2427.01 2212.21 2435.99 2212.21 2448.56C2212.21 2462.93 2202.33 2471.91 2189.76 2471.91ZM2189.76 2436.89C2181.67 2436.89 2176.29 2442.27 2176.29 2450.36C2176.29 2458.44 2181.67 2463.83 2189.76 2463.83C2197.84 2463.83 2204.12 2458.44 2204.12 2450.36C2203.23 2442.27 2197.84 2436.89 2189.76 2436.89Z" fill="#472B29"/>
</g>
<g id="Group_8">
<path id="Vector_21" d="M2171.8 2484.49H2209.51V2600.33H2171.8V2484.49Z" fill="#127AD8"/>
<path id="Vector_22" d="M2209.51 2604.82H2171.8C2169.1 2604.82 2167.31 2603.02 2167.31 2600.33V2484.49C2167.31 2481.79 2169.1 2480 2171.8 2480H2209.51C2212.21 2480 2214 2481.79 2214 2484.49V2600.33C2214 2603.02 2212.21 2604.82 2209.51 2604.82ZM2176.29 2595.84H2205.02V2488.98H2176.29V2595.84Z" fill="#472B29"/>
</g>
</g>
<g id="tomate 1">
<path id="Vector_23" d="M3414.6 3830.16C3539.93 3830.16 3660.13 3780.38 3748.75 3691.75C3837.38 3603.13 3887.16 3482.93 3887.16 3357.6C3887.16 3232.26 3837.38 3112.06 3748.75 3023.44C3660.13 2934.82 3539.93 2885.03 3414.6 2885.03C3289.26 2885.03 3169.06 2934.82 3080.44 3023.44C2991.82 3112.06 2942.03 3232.26 2942.03 3357.6C2942.03 3482.93 2991.82 3603.13 3080.44 3691.75C3169.06 3780.38 3289.26 3830.16 3414.6 3830.16Z" fill="black"/>
<path id="Vector_24" d="M3808.96 3294.68C3808.96 3354.73 3797.14 3414.19 3774.16 3469.67C3751.17 3525.15 3717.49 3575.56 3675.03 3618.03C3632.56 3660.49 3582.15 3694.17 3526.67 3717.16C3471.19 3740.14 3411.73 3751.96 3351.68 3751.96C3291.62 3751.96 3232.16 3740.14 3176.68 3717.16C3121.2 3694.17 3070.79 3660.49 3028.33 3618.03C2985.86 3575.56 2952.18 3525.15 2929.2 3469.67C2906.22 3414.19 2894.39 3354.73 2894.39 3294.68C2894.39 3173.4 2942.57 3057.08 3028.33 2971.33C3114.08 2885.57 3230.4 2837.39 3351.68 2837.39C3472.96 2837.39 3589.27 2885.57 3675.03 2971.33C3760.79 3057.08 3808.96 3173.4 3808.96 3294.68Z" fill="#E44332" stroke="black" stroke-width="72.7586"/>
<path id="Vector_25" d="M3556.12 3438.36C3524.65 3483.04 3479.57 3516.35 3427.62 3533.3C3375.66 3550.25 3319.62 3549.93 3267.86 3532.4C3216.09 3514.87 3171.39 3481.05 3140.44 3436.02C3109.48 3390.98 3093.92 3337.14 3096.09 3282.53C3098.26 3227.92 3118.04 3175.48 3152.47 3133.05C3186.91 3090.61 3234.15 3060.45 3287.14 3047.08C3340.13 3033.71 3396.02 3037.84 3446.47 3058.86C3496.92 3079.88 3539.21 3116.65 3567.03 3163.7L3349.48 3292.48L3556.12 3438.36Z" fill="white"/>
</g>
</g>
<defs>
<filter id="filter0_f_20_80" x="0" y="0" width="5415" height="5255" filterUnits="userSpaceOnUse" color-interpolation-filters="sRGB">
<feFlood flood-opacity="0" result="BackgroundImageFix"/>
<feBlend mode="normal" in="SourceGraphic" in2="BackgroundImageFix" result="shape"/>
<feGaussianBlur stdDeviation="499.5" result="effect1_foregroundBlur_20_80"/>
</filter>
</defs>
</svg>
