<svg width="24117" height="23404" viewBox="0 0 24117 23404" fill="none" xmlns="http://www.w3.org/2000/svg">
<g filter="url(#filter0_f_20_80)">
<path d="M18817.9 16493.9C17685.7 18652.5 15381 17985.7 11903.7 18727.7C8426.37 19469.7 6162.07 18390.4 5110.79 15489.8C4059.51 12589.2 4261.68 9992.11 5717.3 7698.6C7172.92 5405.1 9437.22 4325.8 12510.2 4460.71C15583.2 4595.62 17685.7 5742.38 18817.9 7900.97C19950 10059.6 19950 14335.3 18817.9 16493.9Z" fill="#828282" fill-opacity="0.33"/>
</g>
<path d="M8576.71 10321.2C8555.49 10321.2 8535.15 10329.6 8520.15 10344.6C8505.15 10359.6 8496.72 10380 8496.72 10401.2C8496.72 10422.4 8505.15 10442.7 8520.15 10457.7C8535.15 10472.7 8555.49 10481.2 8576.71 10481.2C8597.92 10481.2 8618.27 10472.7 8633.27 10457.7C8648.27 10442.7 8656.69 10422.4 8656.69 10401.2C8656.69 10380 8648.27 10359.6 8633.27 10344.6C8618.27 10329.6 8597.92 10321.2 8576.71 10321.2Z" fill="#EE3E54"/>
<path d="M11136.2 9721.3C11125.6 9721.3 11115.4 9725.52 11107.9 9733.02C11100.4 9740.52 11096.2 9750.69 11096.2 9761.29C11096.2 9771.9 11100.4 9782.07 11107.9 9789.57C11115.4 9797.07 11125.6 9801.29 11136.2 9801.29C11146.8 9801.29 11157 9797.07 11164.5 9789.57C11172 9782.07 11176.2 9771.9 11176.2 9761.29C11176.2 9750.69 11172 9740.52 11164.5 9733.02C11157 9725.52 11146.8 9721.3 11136.2 9721.3Z" fill="#F1BC19"/>
<path d="M10056.4 9761.3C9663.97 9761.3 9287.6 9917.2 9010.1 10194.7C8732.61 10472.2 8576.71 10848.6 8576.71 11241C8576.71 11633.5 8732.61 12009.8 9010.1 12287.3C9287.6 12564.8 9663.97 12720.7 10056.4 12720.7C10448.9 12720.7 10825.2 12564.8 11102.7 12287.3C11380.2 12009.8 11536.1 11633.5 11536.1 11241C11536.1 10848.6 11380.2 10472.2 11102.7 10194.7C10825.2 9917.2 10448.9 9761.3 10056.4 9761.3Z" fill="#FCE0A2"/>
<path d="M11376.2 9681.31C11333.7 9681.31 11293 9698.17 11263 9728.17C11233 9758.17 11216.2 9798.85 11216.2 9841.28C11216.2 9883.71 11233 9924.4 11263 9954.4C11293 9984.4 11333.7 10001.2 11376.2 10001.2C11418.6 10001.2 11459.3 9984.4 11489.3 9954.4C11519.3 9924.4 11536.1 9883.71 11536.1 9841.28C11536.1 9798.85 11519.3 9758.17 11489.3 9728.17C11459.3 9698.17 11418.6 9681.31 11376.2 9681.31Z" fill="#F1BC19"/>
<path d="M11536.1 10121.2C11514.9 10121.2 11494.6 10129.7 11479.6 10144.7C11464.6 10159.7 11456.1 10180 11456.1 10201.2C11456.1 10222.4 11464.6 10242.8 11479.6 10257.8C11494.6 10272.8 11514.9 10281.2 11536.1 10281.2C11557.3 10281.2 11577.7 10272.8 11592.7 10257.8C11607.7 10242.8 11616.1 10222.4 11616.1 10201.2C11616.1 10180 11607.7 10159.7 11592.7 10144.7C11577.7 10129.7 11557.3 10121.2 11536.1 10121.2Z" fill="#EE3E54"/>
<path d="M11296.2 12200.8C11275 12200.8 11254.6 12209.2 11239.6 12224.2C11224.6 12239.2 11216.2 12259.6 11216.2 12280.8C11216.2 12302 11224.6 12322.4 11239.6 12337.4C11254.6 12352.4 11275 12360.8 11296.2 12360.8C11317.4 12360.8 11337.7 12352.4 11352.7 12337.4C11367.7 12322.4 11376.2 12302 11376.2 12280.8C11376.2 12259.6 11367.7 12239.2 11352.7 12224.2C11337.7 12209.2 11317.4 12200.8 11296.2 12200.8ZM8656.69 11600.9C8614.27 11600.9 8573.58 11617.8 8543.58 11647.8C8513.58 11677.8 8496.72 11718.5 8496.72 11760.9C8496.72 11803.3 8513.58 11844 8543.58 11874C8573.58 11904 8614.27 11920.9 8656.69 11920.9C8699.12 11920.9 8739.81 11904 8769.81 11874C8799.81 11844 8816.66 11803.3 8816.66 11760.9C8816.66 11718.5 8799.81 11677.8 8769.81 11647.8C8739.81 11617.8 8699.12 11600.9 8656.69 11600.9Z" fill="#FBCD59"/>
<path d="M9056.61 12640.7C9035.4 12640.7 9015.05 12649.2 9000.05 12664.2C8985.05 12679.2 8976.63 12699.5 8976.63 12720.7C8976.63 12741.9 8985.05 12762.3 9000.05 12777.3C9015.05 12792.3 9035.4 12800.7 9056.61 12800.7C9077.83 12800.7 9098.17 12792.3 9113.17 12777.3C9128.17 12762.3 9136.6 12741.9 9136.6 12720.7C9136.6 12699.5 9128.17 12679.2 9113.17 12664.2C9098.17 12649.2 9077.83 12640.7 9056.61 12640.7Z" fill="#EE3E54"/>
<path d="M8796.66 11281C8770.15 11281 8744.72 11291.5 8725.97 11310.3C8707.22 11329 8696.68 11354.5 8696.68 11381C8696.68 11407.5 8707.22 11432.9 8725.97 11451.7C8744.72 11470.4 8770.15 11481 8796.66 11481C8823.18 11481 8848.61 11470.4 8867.36 11451.7C8886.11 11432.9 8896.64 11407.5 8896.64 11381C8896.64 11354.5 8886.11 11329 8867.36 11310.3C8848.61 11291.5 8823.18 11281 8796.66 11281Z" fill="white"/>
<path d="M8896.64 11880.9C8886.04 11880.9 8875.86 11885.1 8868.36 11892.6C8860.86 11900.1 8856.65 11910.3 8856.65 11920.9C8856.65 11931.5 8860.86 11941.6 8868.36 11949.1C8875.86 11956.6 8886.04 11960.9 8896.64 11960.9C8907.25 11960.9 8917.42 11956.6 8924.92 11949.1C8932.42 11941.6 8936.63 11931.5 8936.63 11920.9C8936.63 11910.3 8932.42 11900.1 8924.92 11892.6C8917.42 11885.1 8907.25 11880.9 8896.64 11880.9Z" fill="#F1BC19"/>
<path d="M11256.2 10561.1C11245.6 10561.1 11235.4 10565.4 11227.9 10572.9C11220.4 10580.4 11216.2 10590.5 11216.2 10601.1C11216.2 10611.7 11220.4 10621.9 11227.9 10629.4C11235.4 10636.9 11245.6 10641.1 11256.2 10641.1C11266.8 10641.1 11277 10636.9 11284.5 10629.4C11292 10621.9 11296.2 10611.7 11296.2 10601.1C11296.2 10590.5 11292 10580.4 11284.5 10572.9C11277 10565.4 11266.8 10561.1 11256.2 10561.1Z" fill="white"/>
<path d="M9456.5 12132.8C9296.54 12132.8 9164.56 12000.8 9164.56 11840.9V10641.1C9164.56 10481.1 9296.54 10349.2 9456.5 10349.2H10656.3C10816.2 10349.2 10948.2 10481.1 10948.2 10641.1V11840.9C10948.2 12000.8 10816.2 12132.8 10656.3 12132.8H9456.5Z" fill="#127AD8"/>
<path d="M10656.3 10377.2C10800.3 10377.2 10920.2 10497.2 10920.2 10641.1V11840.9C10920.2 11984.9 10800.3 12104.8 10656.3 12104.8H9456.53C9312.56 12104.8 9192.59 11984.9 9192.59 11840.9V10641.1C9192.59 10497.2 9312.56 10377.2 9456.53 10377.2H10656.3ZM10656.3 10321.2H9456.53C9280.57 10321.2 9136.6 10465.2 9136.6 10641.1V11840.9C9136.6 12016.9 9280.57 12160.8 9456.53 12160.8H10656.3C10832.3 12160.8 10976.2 12016.9 10976.2 11840.9V10641.1C10976.2 10465.2 10832.3 10321.2 10656.3 10321.2Z" fill="#472B29"/>
<path d="M10600.3 11980.9H9516.49C9408.51 11980.9 9324.53 11892.9 9324.53 11788.9V10693.1C9324.53 10585.1 9412.51 10501.1 9516.49 10501.1H10600.3C10708.3 10501.1 10792.2 10589.1 10792.2 10693.1V11784.9C10792.2 11892.9 10708.3 11980.9 10600.3 11980.9Z" fill="#FDFCEE"/>
<path d="M10796.3 11137C10784.3 11137 10776.3 11129 10776.3 11117V10961.1C10776.3 10949.1 10784.3 10941.1 10796.3 10941.1C10808.3 10941.1 10816.3 10949.1 10816.3 10961.1V11117C10816.3 11129 10808.3 11137 10796.3 11137Z" fill="#472B29"/>
<path d="M10796.3 10861.1C10784.3 10861.1 10776.3 10853.1 10776.3 10841.1V10761.1C10776.3 10749.1 10784.3 10741.1 10796.3 10741.1C10808.3 10741.1 10816.3 10749.1 10816.3 10761.1V10841.1C10816.3 10853.1 10808.3 10861.1 10796.3 10861.1Z" fill="#472B29"/>
<path d="M10616.3 12000.9H9496.52C9384.54 12000.9 9296.56 11912.9 9296.56 11800.9V10681.1C9296.56 10569.1 9384.54 10481.2 9496.52 10481.2H10512.3C10524.3 10481.2 10532.3 10489.2 10532.3 10501.2C10532.3 10513.1 10524.3 10521.1 10512.3 10521.1H9496.52C9408.54 10521.1 9336.55 10593.1 9336.55 10681.1V11800.9C9336.55 11888.9 9408.54 11960.9 9496.52 11960.9H10616.3C10704.3 11960.9 10776.3 11888.9 10776.3 11800.9V11225C10776.3 11213 10784.3 11205 10796.3 11205C10808.3 11205 10816.3 11213 10816.3 11225V11800.9C10816.3 11912.9 10728.3 12000.9 10616.3 12000.9Z" fill="#472B29"/>
<path d="M10476.3 11305V11581H10312.4L10308.4 11305C10308.4 11237 10276.4 11185 10212.4 11185C10164.4 11185 10136.4 11217 10124.4 11249C10120.4 11261 10120.4 11277 10120.4 11289V11577H9952.45C9952.45 11577 9956.45 11109.1 9952.45 11061.1H10120.4V11141C10144.4 11101.1 10184.4 11057.1 10276.4 11057.1C10392.4 11061.1 10476.3 11133 10476.3 11305Z" fill="#127AD8"/>
<path d="M10476.4 11601H10312.4C10300.4 11601 10292.4 11593 10292.4 11581L10288.4 11305C10288.4 11277 10280.4 11205 10212.4 11205C10168.4 11205 10148.4 11241 10140.4 11257C10140.4 11261 10136.4 11273 10136.4 11293V11581C10136.4 11593 10128.4 11601 10116.4 11601H9948.47C9944.47 11601 9936.47 11597 9932.47 11597C9928.47 11593 9928.47 11589 9928.47 11581C9928.47 11577 9932.47 11113 9928.47 11065.1C9928.47 11061.1 9928.47 11053.1 9932.47 11049.1C9936.47 11045.1 9940.47 11041.1 9948.47 11041.1H10116.4C10128.4 11041.1 10136.4 11049.1 10136.4 11061.1V11085.1C10172.4 11053.1 10216.4 11037.1 10272.4 11037.1C10336.4 11037.1 10384.4 11057.1 10424.4 11093.1C10468.4 11137 10492.4 11209 10492.4 11301V11577C10496.4 11593 10488.4 11601 10476.4 11601ZM10332.4 11561H10456.4V11305C10456.4 11225 10436.4 11165 10400.4 11125C10372.4 11097.1 10328.4 11081.1 10280.4 11081.1C10196.4 11081.1 10160.4 11121 10140.4 11153C10132.4 11169 10112.4 11169 10104.4 11157C10100.4 11153 10100.4 11145 10104.4 11141V11085.1H9976.46C9976.46 11173 9976.46 11481 9976.46 11561H10104.4V11293C10104.4 11273 10108.4 11257 10112.4 11245C10132.4 11197 10172.4 11169 10220.4 11169C10292.4 11169 10336.4 11221 10336.4 11309L10332.4 11561Z" fill="#472B29"/>
<path d="M9752.49 10833C9704.5 10833 9672.51 10865 9672.51 10913C9672.51 10957 9704.5 10993 9752.49 10993C9804.48 10993 9832.48 10957 9832.48 10913C9832.48 10865 9800.48 10833 9752.49 10833Z" fill="#127AD8"/>
<path d="M9752.49 11009C9692.5 11009 9652.51 10969 9652.51 10909C9652.51 10849 9696.5 10809.1 9752.49 10809.1C9808.48 10809.1 9852.47 10849 9852.47 10905C9852.47 10969 9808.48 11009 9752.49 11009ZM9752.49 10853C9716.5 10853 9692.5 10877 9692.5 10913C9692.5 10949 9716.5 10973 9752.49 10973C9788.49 10973 9816.48 10949 9816.48 10913C9812.48 10877 9788.49 10853 9752.49 10853Z" fill="#472B29"/>
<path d="M9672.51 11065H9840.48V11580.9H9672.51V11065Z" fill="#127AD8"/>
<path d="M9840.47 11600.9H9672.51C9660.51 11600.9 9652.51 11592.9 9652.51 11580.9V11065C9652.51 11053 9660.51 11045 9672.51 11045H9840.47C9852.47 11045 9860.47 11053 9860.47 11065V11580.9C9860.47 11592.9 9852.47 11600.9 9840.47 11600.9ZM9692.5 11560.9H9820.48V11085H9692.5V11560.9Z" fill="#472B29"/>
<g clip-path="url(#clip0_20_80)">
<path d="M15207.3 17058C15765.4 17058 16300.7 16836.2 16695.4 16441.6C17090.1 16046.9 17311.8 15511.6 17311.8 14953.4C17311.8 14395.2 17090.1 13859.9 16695.4 13465.3C16300.7 13070.6 15765.4 12848.8 15207.3 12848.8C14649.1 12848.8 14113.8 13070.6 13719.1 13465.3C13324.4 13859.9 13102.7 14395.2 13102.7 14953.4C13102.7 15511.6 13324.4 16046.9 13719.1 16441.6C14113.8 16836.2 14649.1 17058 15207.3 17058Z" fill="black"/>
<path d="M16963.6 14673.2C16963.6 14940.6 16910.9 15205.4 16808.6 15452.5C16706.2 15699.6 16556.2 15924.1 16367.1 16113.2C16178 16302.3 15953.5 16452.3 15706.4 16554.7C15459.3 16657 15194.5 16709.7 14927.1 16709.7C14659.6 16709.7 14394.8 16657 14147.7 16554.7C13900.6 16452.3 13676.1 16302.3 13487 16113.2C13297.9 15924.1 13147.9 15699.6 13045.6 15452.5C12943.2 15205.4 12890.6 14940.6 12890.6 14673.2C12890.6 14133.1 13105.1 13615.1 13487 13233.2C13869 12851.2 14387 12636.7 14927.1 12636.7C15467.2 12636.7 15985.2 12851.2 16367.1 13233.2C16749 13615.1 16963.6 14133.1 16963.6 14673.2Z" fill="#E44332" stroke="black" stroke-width="324.028"/>
<path d="M15837.5 15313.1C15697.4 15512.1 15496.7 15660.4 15265.3 15735.9C15033.9 15811.4 14784.3 15810 14553.8 15731.9C14323.3 15653.8 14124.2 15503.2 13986.3 15302.7C13848.4 15102.1 13779.2 14862.3 13788.8 14619.1C13798.5 14375.9 13886.6 14142.4 14039.9 13953.4C14193.3 13764.4 14403.7 13630.1 14639.7 13570.5C14875.6 13511 15124.6 13529.4 15349.2 13623C15573.9 13716.6 15762.2 13880.4 15886.1 14089.9L14917.3 14663.4L15837.5 15313.1Z" fill="white"/>
</g>
<defs>
<filter id="filter0_f_20_80" x="0.485352" y="0.452148" width="24115.5" height="23403" filterUnits="userSpaceOnUse" color-interpolation-filters="sRGB">
<feFlood flood-opacity="0" result="BackgroundImageFix"/>
<feBlend mode="normal" in="SourceGraphic" in2="BackgroundImageFix" result="shape"/>
<feGaussianBlur stdDeviation="2224.51" result="effect1_foregroundBlur_20_80"/>
</filter>
<clipPath id="clip0_20_80">
<rect width="4698.41" height="4698.41" fill="white" transform="translate(12728.5 12474.6)"/>
</clipPath>
</defs>
</svg>
